<?xml version="1.0" encoding="utf-8" ?><svg xmlns="http://www.w3.org/2000/svg" xmlns:xlink="http://www.w3.org/1999/xlink" width="1024" height="1024" viewBox="0 0 1024 1024"><path fill="#FA0A0B" d="M464.394 49.8153C466.102 52.0789 469.207 58.2439 470.907 61.2573C475.004 68.5226 479.236 75.4886 484.434 82.092C500.717 102.775 520.392 119.807 536.721 140.118C571.181 182.98 595.844 242.427 589.314 298.242C588.064 308.923 583.267 326.61 580.041 336.748C574.029 355.638 566.016 373.351 566.089 393.747C565.916 406.238 569.464 419.893 579.054 428.572C595.418 443.38 616.184 437.235 629.573 422.186C646.74 402.89 654.108 378.541 657.188 353.342C658.002 346.678 657.607 339.642 657.4 333.136C659.319 335.927 661.033 338.6 662.556 341.684C682.396 381.853 693.138 435.165 682.35 479.251C677.84 497.687 669.385 514.57 663.355 532.176C659.409 543.697 656.318 560.07 662.541 571.092C665.401 576.156 669.512 580.567 675.352 582.017C678.818 582.878 685.17 582.976 688.201 580.833C700.608 572.06 694.865 549.994 698.42 535.834C704.148 513.013 716.747 497.353 735.758 484.76C733.602 490.691 730.546 497.152 729.212 503.175C719.622 546.474 741.077 582.48 753.03 621.681C767.411 668.845 764.527 729.964 747.273 776.173C740.208 794.781 730.914 812.463 719.595 828.835C699.095 858.187 664.13 891.217 631.371 906.165C606.659 881.296 599.588 832.988 598.325 799.144C611.471 806.199 619.2 819.045 625.03 832.412C624.075 825.301 624.322 817.859 623.229 810.137C619.115 779.098 606.801 749.717 587.555 725.019C603.723 730.153 615.435 740.172 627.469 751.525C612.072 714.324 586.043 685.514 551.491 664.962C552.444 664.748 553.393 664.513 554.335 664.255C578.476 657.634 595.973 646.392 610.861 625.63C613.007 622.638 616.505 614.331 618.83 610.242C611.985 614.9 606.089 617.544 598.993 621.052C576.141 632.351 560.684 634.653 536.036 635.753C541.681 632.117 548.143 629.117 554.039 625.277C585.141 605.021 606.376 576.109 616.799 540.475C618.668 534.085 619.593 528.622 620.949 522.175C604.258 550.122 573.668 577.5 547.127 596.022C535.578 604.081 523.991 608.984 511.772 615.345C526.209 601.614 532.158 593.713 539.282 575.178C542.357 563.006 540.901 559.709 542.5 549.362C527.975 576.297 503.259 599.622 476.768 614.516C453.143 627.799 421.844 634.282 405.508 657.183C404.404 658.73 402.729 664.878 402.129 666.901C378.774 680.491 343.004 691.347 351.284 726.826C352.542 732.214 354.959 736.144 357.753 740.885C359.887 728.986 364.315 720.623 374.469 713.544C389.338 703.178 412.449 699.605 430.07 702.831C411.094 704.614 391.913 709.971 375.669 720.037C388.066 720.058 400.383 718.579 412.172 718.167C434.263 717.394 471.401 722.094 472.171 751.059C472.786 774.241 448.49 795.66 434.294 811.751C414.984 833.641 405.791 853.197 403.268 882.023C411.503 864.7 423.205 851.952 438.413 840.595C427.007 865.259 418.126 884.057 416.344 912.512L415.752 912.296C403.684 907.779 391.358 899.99 380.598 893.414C303.182 846.104 255.561 762.966 264.24 671.298C265.027 656.737 266.966 642.71 270.343 628.509C280.82 584.456 303.978 545.69 320.132 503.789C332.104 472.736 334.681 436.587 320.976 405.496C353.472 429.017 362.286 468.252 360.023 506.37C359.114 521.675 354.017 540.075 362.021 554.345C365.146 559.917 370.262 564.487 376.545 566.067C382.349 567.527 388.237 566.337 393.257 563.161C411.14 551.845 404.074 520.811 398.131 504.731C391.936 487.969 382.264 472.71 376.197 455.817C370.036 438.663 366.13 420.344 365.612 402.087C363.313 321.079 410.214 313.471 439.015 254.288C443.847 244.489 447.308 234.073 449.301 223.331C450.23 218.499 450.668 213.71 451.729 208.903L451.872 208.277C458.794 235.753 452.557 263.896 438.387 287.994C433.944 295.55 422.85 305.589 430.641 314.267C433.736 317.714 438.019 317.546 440.91 314.038C446.589 307.149 449.386 297.666 453.712 289.888C458.462 280.786 463.135 271.5 467.608 262.256C493.838 209.16 500.344 167.067 478.888 110.762C472.123 93.0093 465.264 69.965 464.417 50.4369L464.394 49.8153Z"/><path fill="#FA0A0B" d="M652.691 301.968C657.652 304.208 669.405 311.206 673.912 314.182C699.143 331.124 716.647 357.359 722.605 387.16C727.858 413.704 725.046 440.263 714.058 465.146C710.885 472.331 705.505 480.346 701.076 486.933C698.617 490.539 695.257 494.25 692.382 497.6C721.269 431.824 711.113 364.682 662.691 312.673C659.436 309.178 655.575 305.712 652.691 301.968Z"/><path fill="#FA0A0B" d="M455.863 657.112L456.098 657.207C450.821 670.894 447.066 680.187 430.343 673.536L425.956 670.795L455.863 657.112Z"/><path fill="#FA0A0B" d="M393.929 682.526C394.612 683.314 394.32 683.002 394.57 684.257C393.516 686.635 389.209 687.89 386.734 688.862C385.958 687.361 386.027 688.113 386.434 686.542C388.664 684.107 390.776 683.5 393.929 682.526Z"/></svg>